<svg width="248" height="71" viewBox="0 0 248 71" fill="none" xmlns="http://www.w3.org/2000/svg">
<path d="M1 1V70H58.338V22.2308V1H1Z" stroke="white" stroke-opacity="0.2" stroke-width="0.971831"/>
<path d="M37.9297 9.74658V60.2818H246.873V25.2959V9.74658H37.9297Z" stroke="white" stroke-opacity="0.2" stroke-width="0.971831"/>
<path d="M17.0545 46.7466V21.5567H27.043C28.7456 21.5567 30.1392 21.9007 31.2238 22.5888C32.32 23.2652 33.1305 24.134 33.6553 25.1953C34.1918 26.2565 34.46 27.3527 34.46 28.4839C34.46 29.8717 34.1276 31.0496 33.4629 32.0175C32.8098 32.9855 31.9177 33.6385 30.7865 33.9767V33.1021C32.3725 33.4636 33.5737 34.2158 34.39 35.3587C35.218 36.5015 35.632 37.8018 35.632 39.2596C35.632 40.7523 35.3463 42.0585 34.7748 43.178C34.2034 44.2976 33.3521 45.1722 32.2209 45.802C31.1013 46.4317 29.7136 46.7466 28.0576 46.7466H17.0545ZM21.3228 42.7757H27.5328C28.2675 42.7757 28.9264 42.6299 29.5095 42.3384C30.0926 42.0351 30.5474 41.6153 30.8739 41.0789C31.2121 40.5308 31.3812 39.8835 31.3812 39.1371C31.3812 38.4608 31.2354 37.8543 30.9439 37.3179C30.6523 36.7814 30.2267 36.3558 29.6669 36.0409C29.1071 35.7144 28.4366 35.5511 27.6552 35.5511H21.3228V42.7757ZM21.3228 31.6152H26.9905C27.5969 31.6152 28.1392 31.4986 28.6173 31.2653C29.0955 31.0321 29.4745 30.688 29.7544 30.2332C30.0343 29.7784 30.1742 29.2186 30.1742 28.5539C30.1742 27.6793 29.8943 26.9504 29.3345 26.3673C28.7748 25.7842 27.9934 25.4926 26.9905 25.4926H21.3228V31.6152ZM47.7147 47.2714C45.8022 47.2714 44.1228 46.8574 42.6767 46.0294C41.2307 45.2014 40.0995 44.0527 39.2831 42.5833C38.4784 41.1138 38.0761 39.4229 38.0761 37.5103C38.0761 35.4461 38.4726 33.656 39.2656 32.14C40.0586 30.6122 41.1607 29.4286 42.5718 28.5889C43.9829 27.7492 45.6156 27.3294 47.4698 27.3294C49.429 27.3294 51.0909 27.79 52.4553 28.7113C53.8314 29.621 54.8518 30.9096 55.5166 32.5773C56.1813 34.2449 56.432 36.21 56.2688 38.4724H52.088V36.933C52.0763 34.8805 51.7148 33.382 51.0034 32.4373C50.292 31.4927 49.1725 31.0204 47.6447 31.0204C45.9188 31.0204 44.636 31.5569 43.7963 32.6298C42.9566 33.691 42.5368 35.2479 42.5368 37.3004C42.5368 39.2129 42.9566 40.694 43.7963 41.7436C44.636 42.7932 45.8605 43.318 47.4698 43.318C48.5077 43.318 49.3999 43.0906 50.1462 42.6357C50.9043 42.1693 51.4874 41.4987 51.8955 40.624L56.0589 41.8835C55.3358 43.5862 54.2163 44.9098 52.7002 45.8544C51.1958 46.7991 49.534 47.2714 47.7147 47.2714ZM41.2073 38.4724V35.2887H54.2046V38.4724H41.2073ZM64.2103 46.7466V36.4257L55.6388 21.5567H60.5543L66.3444 31.5977L72.1171 21.5567H77.0326L68.4786 36.4257V46.7466H64.2103ZM85.0182 47.2714C83.1289 47.2714 81.4788 46.8457 80.0677 45.9944C78.6566 45.1431 77.5603 43.971 76.779 42.4783C76.0093 40.9739 75.6245 39.2479 75.6245 37.3004C75.6245 35.3178 76.021 33.5802 76.814 32.0875C77.607 30.5948 78.709 29.4286 80.1201 28.5889C81.5312 27.7492 83.1639 27.3294 85.0182 27.3294C86.9191 27.3294 88.5751 27.7551 89.9862 28.6064C91.3973 29.4577 92.4935 30.6356 93.2749 32.14C94.0562 33.6327 94.4469 35.3528 94.4469 37.3004C94.4469 39.2596 94.0504 40.9914 93.2574 42.4958C92.476 43.9885 91.3798 45.1606 89.9687 46.0119C88.5576 46.8515 86.9074 47.2714 85.0182 47.2714ZM85.0182 43.318C86.6975 43.318 87.9453 42.7582 88.7617 41.6386C89.578 40.5191 89.9862 39.073 89.9862 37.3004C89.9862 35.4695 89.5722 34.0117 88.7442 32.9271C87.9162 31.8309 86.6742 31.2828 85.0182 31.2828C83.887 31.2828 82.954 31.5394 82.2193 32.0525C81.4963 32.554 80.9598 33.2595 80.61 34.1691C80.2601 35.0671 80.0852 36.1109 80.0852 37.3004C80.0852 39.1313 80.4992 40.5949 81.3272 41.6911C82.1668 42.7757 83.3972 43.318 85.0182 43.318ZM105.386 47.2889C103.986 47.2889 102.832 47.0556 101.922 46.5891C101.012 46.1227 100.289 45.5279 99.753 44.8049C99.2165 44.0818 98.82 43.3121 98.5635 42.4958C98.3069 41.6795 98.1378 40.9098 98.0562 40.1867C97.9862 39.452 97.9512 38.8573 97.9512 38.4024V27.8542H102.219V36.9505C102.219 37.5336 102.26 38.1925 102.342 38.9272C102.424 39.6503 102.61 40.35 102.902 41.0264C103.205 41.6911 103.648 42.2392 104.231 42.6707C104.826 43.1022 105.625 43.318 106.628 43.318C107.164 43.318 107.695 43.2305 108.22 43.0556C108.744 42.8806 109.217 42.5833 109.637 42.1634C110.068 41.7319 110.412 41.143 110.669 40.3966C110.925 39.6503 111.053 38.7057 111.053 37.5628L113.555 38.6298C113.555 40.2392 113.24 41.6969 112.61 43.0031C111.992 44.3092 111.077 45.353 109.864 46.1343C108.651 46.904 107.158 47.2889 105.386 47.2889ZM111.561 46.7466V40.8864H111.053V27.8542H115.287V46.7466H111.561ZM120.201 46.7466V27.8542H123.927V32.4548L123.473 31.8601C123.706 31.2303 124.015 30.6589 124.4 30.1458C124.796 29.621 125.269 29.1895 125.817 28.8513C126.283 28.5364 126.796 28.2915 127.356 28.1166C127.927 27.93 128.511 27.8192 129.105 27.7842C129.7 27.7376 130.277 27.7609 130.837 27.8542V31.7901C130.277 31.6268 129.63 31.5744 128.895 31.6327C128.172 31.691 127.519 31.8951 126.936 32.2449C126.353 32.5598 125.875 32.9621 125.502 33.4519C125.14 33.9417 124.872 34.5015 124.697 35.1313C124.522 35.7493 124.435 36.4199 124.435 37.1429V46.7466H120.201ZM134.175 46.7466V21.5567H149.342V25.7725H138.391V32.0525H147.243V36.2508H138.391V46.7466H134.175ZM159.573 47.2889C158.173 47.2889 157.019 47.0556 156.109 46.5891C155.2 46.1227 154.477 45.5279 153.94 44.8049C153.404 44.0818 153.007 43.3121 152.751 42.4958C152.494 41.6795 152.325 40.9098 152.243 40.1867C152.173 39.452 152.138 38.8573 152.138 38.4024V27.8542H156.407V36.9505C156.407 37.5336 156.447 38.1925 156.529 38.9272C156.611 39.6503 156.797 40.35 157.089 41.0264C157.392 41.6911 157.835 42.2392 158.418 42.6707C159.013 43.1022 159.812 43.318 160.815 43.318C161.351 43.318 161.882 43.2305 162.407 43.0556C162.932 42.8806 163.404 42.5833 163.824 42.1634C164.255 41.7319 164.599 41.143 164.856 40.3966C165.112 39.6503 165.241 38.7057 165.241 37.5628L167.742 38.6298C167.742 40.2392 167.427 41.6969 166.797 43.0031C166.179 44.3092 165.264 45.353 164.051 46.1343C162.838 46.904 161.346 47.2889 159.573 47.2889ZM165.748 46.7466V40.8864H165.241V27.8542H169.474V46.7466H165.748ZM185.462 46.7466C184.214 46.9798 182.989 47.0789 181.788 47.044C180.599 47.0206 179.532 46.8049 178.587 46.3967C177.642 45.9769 176.925 45.318 176.435 44.42C176.004 43.6037 175.776 42.7698 175.753 41.9185C175.73 41.0672 175.718 40.1051 175.718 39.0322V22.6063H179.916V38.7873C179.916 39.5453 179.922 40.21 179.934 40.7815C179.957 41.3529 180.08 41.8194 180.301 42.1809C180.721 42.8806 181.392 43.2713 182.313 43.3529C183.234 43.4346 184.284 43.3879 185.462 43.213V46.7466ZM172.289 31.1604V27.8542H185.462V31.1604H172.289ZM196.609 47.2889C195.209 47.2889 194.055 47.0556 193.145 46.5891C192.236 46.1227 191.512 45.5279 190.976 44.8049C190.44 44.0818 190.043 43.3121 189.787 42.4958C189.53 41.6795 189.361 40.9098 189.279 40.1867C189.209 39.452 189.174 38.8573 189.174 38.4024V27.8542H193.443V36.9505C193.443 37.5336 193.483 38.1925 193.565 38.9272C193.647 39.6503 193.833 40.35 194.125 41.0264C194.428 41.6911 194.871 42.2392 195.454 42.6707C196.049 43.1022 196.848 43.318 197.851 43.318C198.387 43.318 198.918 43.2305 199.443 43.0556C199.967 42.8806 200.44 42.5833 200.86 42.1634C201.291 41.7319 201.635 41.143 201.892 40.3966C202.148 39.6503 202.276 38.7057 202.276 37.5628L204.778 38.6298C204.778 40.2392 204.463 41.6969 203.833 43.0031C203.215 44.3092 202.3 45.353 201.087 46.1343C199.874 46.904 198.381 47.2889 196.609 47.2889ZM202.784 46.7466V40.8864H202.276V27.8542H206.51V46.7466H202.784ZM211.424 46.7466V27.8542H215.15V32.4548L214.696 31.8601C214.929 31.2303 215.238 30.6589 215.623 30.1458C216.019 29.621 216.492 29.1895 217.04 28.8513C217.506 28.5364 218.019 28.2915 218.579 28.1166C219.151 27.93 219.734 27.8192 220.328 27.7842C220.923 27.7376 221.5 27.7609 222.06 27.8542V31.7901C221.5 31.6268 220.853 31.5744 220.118 31.6327C219.395 31.691 218.742 31.8951 218.159 32.2449C217.576 32.5598 217.098 32.9621 216.725 33.4519C216.363 33.9417 216.095 34.5015 215.92 35.1313C215.745 35.7493 215.658 36.4199 215.658 37.1429V46.7466H211.424ZM233.646 47.2714C231.733 47.2714 230.054 46.8574 228.608 46.0294C227.162 45.2014 226.03 44.0527 225.214 42.5833C224.409 41.1138 224.007 39.4229 224.007 37.5103C224.007 35.4461 224.404 33.656 225.197 32.14C225.99 30.6122 227.092 29.4286 228.503 28.5889C229.914 27.7492 231.547 27.3294 233.401 27.3294C235.36 27.3294 237.022 27.79 238.386 28.7113C239.762 29.621 240.783 30.9096 241.448 32.5773C242.112 34.2449 242.363 36.21 242.2 38.4724H238.019V36.933C238.007 34.8805 237.646 33.382 236.934 32.4373C236.223 31.4927 235.103 31.0204 233.576 31.0204C231.85 31.0204 230.567 31.5569 229.727 32.6298C228.888 33.691 228.468 35.2479 228.468 37.3004C228.468 39.2129 228.888 40.694 229.727 41.7436C230.567 42.7932 231.791 43.318 233.401 43.318C234.439 43.318 235.331 43.0906 236.077 42.6357C236.835 42.1693 237.418 41.4987 237.827 40.624L241.99 41.8835C241.267 43.5862 240.147 44.9098 238.631 45.8544C237.127 46.7991 235.465 47.2714 233.646 47.2714ZM227.138 38.4724V35.2887H240.136V38.4724H227.138Z" fill="white"/>
<path d="M124.123 56.7362C123.714 56.7362 123.344 56.665 123.015 56.5224C122.689 56.3799 122.419 56.1765 122.207 55.9121C121.997 55.6452 121.863 55.329 121.806 54.9636L122.778 54.8159C122.861 55.1476 123.031 55.4042 123.287 55.5856C123.546 55.767 123.844 55.8577 124.181 55.8577C124.381 55.8577 124.569 55.8266 124.745 55.7644C124.921 55.7022 125.064 55.6115 125.173 55.4923C125.284 55.3731 125.34 55.2267 125.34 55.053C125.34 54.9753 125.327 54.904 125.301 54.8392C125.275 54.7719 125.236 54.7122 125.184 54.6604C125.135 54.6086 125.07 54.5619 124.99 54.5205C124.912 54.4764 124.821 54.4388 124.718 54.4077L123.272 53.9801C123.147 53.9439 123.013 53.8959 122.867 53.8363C122.725 53.7741 122.589 53.6899 122.459 53.5836C122.332 53.4748 122.227 53.3374 122.144 53.1716C122.064 53.0031 122.024 52.7958 122.024 52.5496C122.024 52.1894 122.115 51.8875 122.296 51.6439C122.48 51.3977 122.726 51.2137 123.035 51.0919C123.346 50.9701 123.69 50.9104 124.069 50.913C124.452 50.9156 124.794 50.9817 125.095 51.1113C125.395 51.2383 125.647 51.4236 125.849 51.6672C126.051 51.9108 126.194 52.2049 126.277 52.5496L125.27 52.7245C125.228 52.5276 125.148 52.3604 125.029 52.2231C124.912 52.0831 124.768 51.9769 124.597 51.9043C124.429 51.8317 124.249 51.7929 124.057 51.7877C123.87 51.7851 123.697 51.8136 123.536 51.8732C123.378 51.9302 123.25 52.0131 123.151 52.122C123.055 52.2308 123.007 52.3578 123.007 52.503C123.007 52.6403 123.049 52.753 123.132 52.8411C123.215 52.9267 123.317 52.9953 123.439 53.0472C123.563 53.0964 123.689 53.1379 123.816 53.1716L124.819 53.4515C124.956 53.4877 125.11 53.537 125.281 53.5992C125.452 53.6614 125.617 53.7482 125.775 53.8596C125.933 53.9711 126.063 54.1175 126.164 54.2989C126.268 54.4803 126.319 54.711 126.319 54.9908C126.319 55.2811 126.258 55.5364 126.137 55.7566C126.017 55.9743 125.855 56.1557 125.651 56.3009C125.446 56.446 125.211 56.5548 124.947 56.6274C124.685 56.7 124.411 56.7362 124.123 56.7362ZM129.069 56.7362C128.644 56.7362 128.271 56.6442 127.95 56.4602C127.629 56.2762 127.377 56.021 127.196 55.6944C127.017 55.3679 126.928 54.9921 126.928 54.5671C126.928 54.1084 127.016 53.7106 127.192 53.3737C127.368 53.0342 127.613 52.7712 127.927 52.5846C128.24 52.398 128.603 52.3047 129.015 52.3047C129.45 52.3047 129.82 52.4071 130.123 52.6118C130.429 52.8139 130.655 53.1003 130.803 53.4709C130.951 53.8415 131.007 54.2782 130.97 54.7809H130.041V54.4388C130.039 53.9827 129.958 53.6497 129.8 53.4398C129.642 53.2299 129.393 53.1249 129.054 53.1249C128.67 53.1249 128.385 53.2441 128.199 53.4826C128.012 53.7184 127.919 54.0644 127.919 54.5205C127.919 54.9455 128.012 55.2746 128.199 55.5079C128.385 55.7411 128.657 55.8577 129.015 55.8577C129.246 55.8577 129.444 55.8072 129.61 55.7061C129.778 55.6024 129.908 55.4534 129.999 55.2591L130.924 55.539C130.763 55.9173 130.514 56.2115 130.177 56.4214C129.843 56.6313 129.474 56.7362 129.069 56.7362ZM127.623 54.7809V54.0734H130.512V54.7809H127.623ZM133.746 56.7362C133.321 56.7362 132.948 56.6442 132.627 56.4602C132.305 56.2762 132.054 56.021 131.873 55.6944C131.694 55.3679 131.604 54.9921 131.604 54.5671C131.604 54.1084 131.693 53.7106 131.869 53.3737C132.045 53.0342 132.29 52.7712 132.604 52.5846C132.917 52.398 133.28 52.3047 133.692 52.3047C134.127 52.3047 134.497 52.4071 134.8 52.6118C135.106 52.8139 135.332 53.1003 135.48 53.4709C135.628 53.8415 135.684 54.2782 135.647 54.7809H134.718V54.4388C134.716 53.9827 134.635 53.6497 134.477 53.4398C134.319 53.2299 134.07 53.1249 133.731 53.1249C133.347 53.1249 133.062 53.2441 132.876 53.4826C132.689 53.7184 132.596 54.0644 132.596 54.5205C132.596 54.9455 132.689 55.2746 132.876 55.5079C133.062 55.7411 133.334 55.8577 133.692 55.8577C133.923 55.8577 134.121 55.8072 134.287 55.7061C134.455 55.6024 134.585 55.4534 134.675 55.2591L135.601 55.539C135.44 55.9173 135.191 56.2115 134.854 56.4214C134.52 56.6313 134.151 56.7362 133.746 56.7362ZM132.3 54.7809V54.0734H135.189V54.7809H132.3ZM140.532 56.6196C140.254 56.6715 139.982 56.6935 139.715 56.6857C139.451 56.6805 139.214 56.6326 139.004 56.5419C138.794 56.4486 138.635 56.3022 138.526 56.1026C138.43 55.9212 138.379 55.7359 138.374 55.5467C138.369 55.3575 138.367 55.1437 138.367 54.9053V51.2551H139.299V54.8509C139.299 55.0193 139.301 55.1671 139.303 55.2941C139.309 55.421 139.336 55.5247 139.385 55.605C139.478 55.7605 139.627 55.8473 139.832 55.8655C140.037 55.8836 140.27 55.8733 140.532 55.8344V56.6196ZM137.605 53.156V52.4213H140.532V53.156H137.605ZM144.338 56.6196V54.5982C144.338 54.4661 144.329 54.3196 144.311 54.159C144.293 53.9983 144.25 53.8441 144.183 53.6964C144.118 53.5461 144.02 53.423 143.887 53.3271C143.758 53.2312 143.582 53.1832 143.359 53.1832C143.24 53.1832 143.122 53.2027 143.005 53.2415C142.888 53.2804 142.782 53.3478 142.686 53.4437C142.593 53.537 142.518 53.6666 142.461 53.8324C142.404 53.9957 142.375 54.2056 142.375 54.4622L141.819 54.225C141.819 53.8674 141.888 53.5435 142.025 53.2532C142.165 52.963 142.37 52.7323 142.64 52.5613C142.909 52.3876 143.241 52.3008 143.635 52.3008C143.946 52.3008 144.202 52.3526 144.404 52.4563C144.607 52.56 144.767 52.6921 144.886 52.8528C145.006 53.0135 145.094 53.1845 145.151 53.3659C145.208 53.5473 145.244 53.7197 145.26 53.883C145.278 54.0436 145.287 54.1745 145.287 54.2756V56.6196H144.338ZM141.427 56.6196V51.0219H142.263V53.9685H142.375V56.6196H141.427ZM148.21 56.7362C147.785 56.7362 147.412 56.6442 147.09 56.4602C146.769 56.2762 146.518 56.021 146.336 55.6944C146.157 55.3679 146.068 54.9921 146.068 54.5671C146.068 54.1084 146.156 53.7106 146.332 53.3737C146.509 53.0342 146.754 52.7712 147.067 52.5846C147.381 52.398 147.743 52.3047 148.156 52.3047C148.591 52.3047 148.96 52.4071 149.263 52.6118C149.569 52.8139 149.796 53.1003 149.944 53.4709C150.091 53.8415 150.147 54.2782 150.111 54.7809H149.182V54.4388C149.179 53.9827 149.099 53.6497 148.941 53.4398C148.783 53.2299 148.534 53.1249 148.194 53.1249C147.811 53.1249 147.526 53.2441 147.339 53.4826C147.153 53.7184 147.059 54.0644 147.059 54.5205C147.059 54.9455 147.153 55.2746 147.339 55.5079C147.526 55.7411 147.798 55.8577 148.156 55.8577C148.386 55.8577 148.584 55.8072 148.75 55.7061C148.919 55.6024 149.048 55.4534 149.139 55.2591L150.064 55.539C149.904 55.9173 149.655 56.2115 149.318 56.4214C148.984 56.6313 148.614 56.7362 148.21 56.7362ZM146.764 54.7809V54.0734H149.652V54.7809H146.764ZM153.709 56.7362C153.405 56.7362 153.149 56.6792 152.939 56.5652C152.729 56.4486 152.57 56.2944 152.461 56.1026C152.355 55.9108 152.301 55.6996 152.301 55.469C152.301 55.2668 152.335 55.0854 152.402 54.9248C152.47 54.7615 152.574 54.6215 152.713 54.5049C152.853 54.3857 153.035 54.2885 153.258 54.2134C153.426 54.159 153.623 54.1097 153.849 54.0657C154.077 54.0216 154.323 53.9814 154.587 53.9451C154.854 53.9063 155.133 53.8648 155.423 53.8208L155.089 54.0112C155.091 53.721 155.026 53.5072 154.894 53.3698C154.762 53.2325 154.539 53.1638 154.226 53.1638C154.036 53.1638 153.854 53.2079 153.678 53.296C153.501 53.3841 153.378 53.5357 153.308 53.7508L152.453 53.4826C152.557 53.1275 152.754 52.8424 153.044 52.6273C153.337 52.4122 153.731 52.3047 154.226 52.3047C154.599 52.3047 154.927 52.3656 155.209 52.4874C155.494 52.6092 155.705 52.8088 155.843 53.0861C155.918 53.2338 155.963 53.3854 155.979 53.5409C155.994 53.6938 156.002 53.8609 156.002 54.0423V56.6196H155.182V55.71L155.318 55.8577C155.129 56.1609 154.907 56.3838 154.653 56.5263C154.402 56.6663 154.087 56.7362 153.709 56.7362ZM153.895 55.9899C154.108 55.9899 154.289 55.9523 154.439 55.8771C154.59 55.802 154.709 55.71 154.797 55.6011C154.888 55.4923 154.949 55.3899 154.98 55.2941C155.029 55.1748 155.056 55.0388 155.061 54.8859C155.069 54.7304 155.073 54.6047 155.073 54.5088L155.361 54.5943C155.078 54.6384 154.836 54.6773 154.634 54.711C154.432 54.7446 154.258 54.777 154.113 54.8081C153.968 54.8366 153.84 54.869 153.728 54.9053C153.619 54.9442 153.527 54.9895 153.452 55.0414C153.377 55.0932 153.319 55.1528 153.277 55.2202C153.238 55.2876 153.219 55.3666 153.219 55.4573C153.219 55.561 153.245 55.653 153.297 55.7333C153.348 55.8111 153.424 55.8733 153.522 55.9199C153.623 55.9666 153.748 55.9899 153.895 55.9899ZM159.032 56.7362C158.622 56.7362 158.279 56.6391 158.002 56.4447C157.724 56.2503 157.516 55.986 157.376 55.6517C157.236 55.3148 157.166 54.9377 157.166 54.5205C157.166 54.0981 157.236 53.7197 157.376 53.3854C157.516 53.0511 157.72 52.788 157.99 52.5962C158.262 52.4019 158.598 52.3047 158.997 52.3047C159.393 52.3047 159.737 52.4019 160.027 52.5962C160.32 52.788 160.546 53.0511 160.707 53.3854C160.868 53.7171 160.948 54.0955 160.948 54.5205C160.948 54.9403 160.869 55.3174 160.711 55.6517C160.553 55.986 160.33 56.2503 160.042 56.4447C159.755 56.6391 159.418 56.7362 159.032 56.7362ZM157.006 56.6196V51.0219H157.951V53.673H157.834V56.6196H157.006ZM158.888 55.8966C159.131 55.8966 159.332 55.8357 159.49 55.7139C159.649 55.5921 159.765 55.4275 159.84 55.2202C159.918 55.0103 159.957 54.777 159.957 54.5205C159.957 54.2665 159.918 54.0359 159.84 53.8285C159.763 53.6186 159.642 53.4528 159.479 53.331C159.315 53.2066 159.108 53.1444 158.857 53.1444C158.618 53.1444 158.424 53.2027 158.274 53.3193C158.123 53.4333 158.012 53.594 157.939 53.8013C157.869 54.0061 157.834 54.2458 157.834 54.5205C157.834 54.7926 157.869 55.0323 157.939 55.2396C158.012 55.447 158.125 55.6089 158.278 55.7255C158.433 55.8396 158.637 55.8966 158.888 55.8966ZM161.883 51.7838V50.9247H162.82V51.7838H161.883ZM161.883 56.6196V52.4213H162.82V56.6196H161.883ZM164.062 56.6196V50.9053H164.999V56.6196H164.062ZM166.241 51.7838V50.9247H167.178V51.7838H166.241ZM166.241 56.6196V52.4213H167.178V56.6196H166.241ZM170.803 56.6196C170.525 56.6715 170.253 56.6935 169.986 56.6857C169.722 56.6805 169.485 56.6326 169.275 56.5419C169.065 56.4486 168.906 56.3022 168.797 56.1026C168.701 55.9212 168.651 55.7359 168.645 55.5467C168.64 55.3575 168.638 55.1437 168.638 54.9053V51.2551H169.571V54.8509C169.571 55.0193 169.572 55.1671 169.574 55.2941C169.58 55.421 169.607 55.5247 169.656 55.605C169.749 55.7605 169.898 55.8473 170.103 55.8655C170.308 55.8836 170.541 55.8733 170.803 55.8344V56.6196ZM167.876 53.156V52.4213H170.803V53.156H167.876ZM172.144 58.4855L172.952 56.2659L172.968 56.919L171.137 52.4213H172.113L173.411 55.7489H173.162L174.426 52.4213H175.362L173.022 58.4855H172.144ZM180.402 56.6196V54.5982C180.402 54.4661 180.393 54.3196 180.375 54.159C180.357 53.9983 180.314 53.8441 180.247 53.6964C180.182 53.5461 180.084 53.423 179.951 53.3271C179.822 53.2312 179.646 53.1832 179.423 53.1832C179.304 53.1832 179.186 53.2027 179.069 53.2415C178.952 53.2804 178.846 53.3478 178.75 53.4437C178.657 53.537 178.582 53.6666 178.525 53.8324C178.468 53.9957 178.439 54.2056 178.439 54.4622L177.883 54.225C177.883 53.8674 177.952 53.5435 178.089 53.2532C178.229 52.963 178.434 52.7323 178.704 52.5613C178.973 52.3876 179.305 52.3008 179.699 52.3008C180.01 52.3008 180.266 52.3526 180.468 52.4563C180.671 52.56 180.831 52.6921 180.951 52.8528C181.07 53.0135 181.158 53.1845 181.215 53.3659C181.272 53.5473 181.308 53.7197 181.324 53.883C181.342 54.0436 181.351 54.1745 181.351 54.2756V56.6196H180.402ZM177.491 56.6196V52.4213H178.327V53.7236H178.439V56.6196H177.491ZM184.151 56.7362C183.731 56.7362 183.365 56.6417 183.051 56.4525C182.738 56.2633 182.494 56.0028 182.32 55.6711C182.149 55.3368 182.064 54.9533 182.064 54.5205C182.064 54.0799 182.152 53.6938 182.328 53.3621C182.504 53.0303 182.749 52.7712 183.063 52.5846C183.376 52.398 183.739 52.3047 184.151 52.3047C184.574 52.3047 184.942 52.3993 185.255 52.5885C185.569 52.7777 185.812 53.0394 185.986 53.3737C186.16 53.7054 186.247 54.0877 186.247 54.5205C186.247 54.9559 186.158 55.3407 185.982 55.675C185.809 56.0067 185.565 56.2672 185.251 56.4564C184.938 56.643 184.571 56.7362 184.151 56.7362ZM184.151 55.8577C184.524 55.8577 184.802 55.7333 184.983 55.4845C185.165 55.2357 185.255 54.9144 185.255 54.5205C185.255 54.1136 185.163 53.7897 184.979 53.5486C184.795 53.305 184.519 53.1832 184.151 53.1832C183.9 53.1832 183.693 53.2402 183.529 53.3543C183.369 53.4657 183.249 53.6225 183.172 53.8246C183.094 54.0242 183.055 54.2561 183.055 54.5205C183.055 54.9273 183.147 55.2526 183.331 55.4962C183.518 55.7372 183.791 55.8577 184.151 55.8577ZM189.564 56.6196C189.286 56.6715 189.014 56.6935 188.747 56.6857C188.483 56.6805 188.246 56.6326 188.036 56.5419C187.826 56.4486 187.667 56.3022 187.558 56.1026C187.462 55.9212 187.411 55.7359 187.406 55.5467C187.401 55.3575 187.398 55.1437 187.398 54.9053V51.2551H188.331V54.8509C188.331 55.0193 188.333 55.1671 188.335 55.2941C188.34 55.421 188.368 55.5247 188.417 55.605C188.51 55.7605 188.659 55.8473 188.864 55.8655C189.069 55.8836 189.302 55.8733 189.564 55.8344V56.6196ZM186.637 53.156V52.4213H189.564V53.156H186.637ZM194.484 56.6196C194.206 56.6715 193.934 56.6935 193.667 56.6857C193.403 56.6805 193.166 56.6326 192.956 56.5419C192.746 56.4486 192.587 56.3022 192.478 56.1026C192.382 55.9212 192.331 55.7359 192.326 55.5467C192.321 55.3575 192.318 55.1437 192.318 54.9053V51.2551H193.251V54.8509C193.251 55.0193 193.253 55.1671 193.255 55.2941C193.26 55.421 193.288 55.5247 193.337 55.605C193.43 55.7605 193.579 55.8473 193.784 55.8655C193.989 55.8836 194.222 55.8733 194.484 55.8344V56.6196ZM191.556 53.156V52.4213H194.484V53.156H191.556ZM198.29 56.6196V54.5982C198.29 54.4661 198.281 54.3196 198.263 54.159C198.245 53.9983 198.202 53.8441 198.135 53.6964C198.07 53.5461 197.971 53.423 197.839 53.3271C197.71 53.2312 197.533 53.1832 197.311 53.1832C197.191 53.1832 197.073 53.2027 196.957 53.2415C196.84 53.2804 196.734 53.3478 196.638 53.4437C196.545 53.537 196.47 53.6666 196.413 53.8324C196.356 53.9957 196.327 54.2056 196.327 54.4622L195.771 54.225C195.771 53.8674 195.84 53.5435 195.977 53.2532C196.117 52.963 196.322 52.7323 196.591 52.5613C196.861 52.3876 197.193 52.3008 197.587 52.3008C197.898 52.3008 198.154 52.3526 198.356 52.4563C198.558 52.56 198.719 52.6921 198.838 52.8528C198.957 53.0135 199.046 53.1845 199.103 53.3659C199.16 53.5473 199.196 53.7197 199.211 53.883C199.23 54.0436 199.239 54.1745 199.239 54.2756V56.6196H198.29ZM195.379 56.6196V51.0219H196.214V53.9685H196.327V56.6196H195.379ZM202.162 56.7362C201.737 56.7362 201.364 56.6442 201.042 56.4602C200.721 56.2762 200.469 56.021 200.288 55.6944C200.109 55.3679 200.02 54.9921 200.02 54.5671C200.02 54.1084 200.108 53.7106 200.284 53.3737C200.46 53.0342 200.705 52.7712 201.019 52.5846C201.332 52.398 201.695 52.3047 202.107 52.3047C202.543 52.3047 202.912 52.4071 203.215 52.6118C203.521 52.8139 203.748 53.1003 203.896 53.4709C204.043 53.8415 204.099 54.2782 204.063 54.7809H203.134V54.4388C203.131 53.9827 203.051 53.6497 202.893 53.4398C202.734 53.2299 202.486 53.1249 202.146 53.1249C201.763 53.1249 201.478 53.2441 201.291 53.4826C201.104 53.7184 201.011 54.0644 201.011 54.5205C201.011 54.9455 201.104 55.2746 201.291 55.5079C201.478 55.7411 201.75 55.8577 202.107 55.8577C202.338 55.8577 202.536 55.8072 202.702 55.7061C202.871 55.6024 203 55.4534 203.091 55.2591L204.016 55.539C203.855 55.9173 203.607 56.2115 203.27 56.4214C202.935 56.6313 202.566 56.7362 202.162 56.7362ZM200.716 54.7809V54.0734H203.604V54.7809H200.716ZM208.17 56.7362C207.784 56.7362 207.447 56.6391 207.159 56.4447C206.871 56.2503 206.648 55.986 206.49 55.6517C206.332 55.3174 206.253 54.9403 206.253 54.5205C206.253 54.0955 206.332 53.7171 206.49 53.3854C206.651 53.0511 206.878 52.788 207.171 52.5962C207.463 52.4019 207.808 52.3047 208.205 52.3047C208.604 52.3047 208.938 52.4019 209.208 52.5962C209.48 52.788 209.686 53.0511 209.826 53.3854C209.966 53.7197 210.036 54.0981 210.036 54.5205C210.036 54.9377 209.966 55.3148 209.826 55.6517C209.686 55.986 209.477 56.2503 209.2 56.4447C208.923 56.6391 208.579 56.7362 208.17 56.7362ZM208.314 55.8966C208.565 55.8966 208.767 55.8396 208.92 55.7255C209.075 55.6089 209.188 55.447 209.258 55.2396C209.331 55.0323 209.367 54.7926 209.367 54.5205C209.367 54.2458 209.331 54.0061 209.258 53.8013C209.188 53.594 209.078 53.4333 208.928 53.3193C208.777 53.2027 208.583 53.1444 208.345 53.1444C208.093 53.1444 207.886 53.2066 207.723 53.331C207.559 53.4528 207.439 53.6186 207.361 53.8285C207.283 54.0359 207.244 54.2665 207.244 54.5205C207.244 54.777 207.282 55.0103 207.357 55.2202C207.435 55.4275 207.553 55.5921 207.711 55.7139C207.869 55.8357 208.07 55.8966 208.314 55.8966ZM209.367 56.6196V53.673H209.25V51.0219H210.195V56.6196H209.367ZM211.363 51.7838V50.9247H212.299V51.7838H211.363ZM211.363 56.6196V52.4213H212.299V56.6196H211.363ZM215.085 56.7362C214.567 56.7362 214.145 56.6196 213.822 56.3864C213.498 56.1531 213.301 55.8253 213.231 55.4029L214.187 55.2552C214.236 55.4625 214.345 55.6258 214.513 55.745C214.682 55.8642 214.894 55.9238 215.151 55.9238C215.376 55.9238 215.55 55.8797 215.672 55.7916C215.796 55.7009 215.859 55.5778 215.859 55.4223C215.859 55.3264 215.835 55.25 215.789 55.193C215.744 55.1334 215.646 55.0764 215.493 55.0219C215.34 54.9675 215.106 54.8988 214.789 54.8159C214.437 54.7226 214.157 54.6228 213.95 54.5166C213.743 54.4077 213.593 54.2795 213.503 54.1317C213.412 53.984 213.367 53.8052 213.367 53.5953C213.367 53.3335 213.435 53.1055 213.573 52.9111C213.71 52.7168 213.902 52.5677 214.148 52.4641C214.394 52.3578 214.685 52.3047 215.019 52.3047C215.345 52.3047 215.634 52.3552 215.886 52.4563C216.14 52.5574 216.344 52.7012 216.5 52.8878C216.655 53.0744 216.751 53.2934 216.788 53.5448L215.831 53.7158C215.808 53.537 215.726 53.3957 215.586 53.2921C215.449 53.1884 215.265 53.1301 215.034 53.1171C214.814 53.1042 214.637 53.1379 214.502 53.2182C214.367 53.296 214.3 53.4061 214.3 53.5486C214.3 53.629 214.327 53.6977 214.381 53.7547C214.436 53.8117 214.545 53.8687 214.708 53.9257C214.874 53.9827 215.12 54.0527 215.446 54.1356C215.781 54.2211 216.048 54.3196 216.247 54.4311C216.449 54.5399 216.595 54.6708 216.683 54.8237C216.773 54.9766 216.819 55.1619 216.819 55.3796C216.819 55.802 216.664 56.1337 216.356 56.3747C216.05 56.6157 215.627 56.7362 215.085 56.7362ZM218.844 56.7362C218.541 56.7362 218.284 56.6792 218.074 56.5652C217.864 56.4486 217.705 56.2944 217.596 56.1026C217.49 55.9108 217.437 55.6996 217.437 55.469C217.437 55.2668 217.471 55.0854 217.538 54.9248C217.605 54.7615 217.709 54.6215 217.849 54.5049C217.989 54.3857 218.17 54.2885 218.393 54.2134C218.562 54.159 218.759 54.1097 218.984 54.0657C219.212 54.0216 219.458 53.9814 219.723 53.9451C219.99 53.9063 220.268 53.8648 220.558 53.8208L220.224 54.0112C220.227 53.721 220.162 53.5072 220.03 53.3698C219.898 53.2325 219.675 53.1638 219.361 53.1638C219.172 53.1638 218.989 53.2079 218.813 53.296C218.637 53.3841 218.514 53.5357 218.444 53.7508L217.588 53.4826C217.692 53.1275 217.889 52.8424 218.179 52.6273C218.472 52.4122 218.866 52.3047 219.361 52.3047C219.734 52.3047 220.062 52.3656 220.345 52.4874C220.63 52.6092 220.841 52.8088 220.978 53.0861C221.053 53.2338 221.099 53.3854 221.114 53.5409C221.13 53.6938 221.138 53.8609 221.138 54.0423V56.6196H220.317V55.71L220.453 55.8577C220.264 56.1609 220.043 56.3838 219.789 56.5263C219.537 56.6663 219.222 56.7362 218.844 56.7362ZM219.031 55.9899C219.243 55.9899 219.425 55.9523 219.575 55.8771C219.725 55.802 219.844 55.71 219.933 55.6011C220.023 55.4923 220.084 55.3899 220.115 55.2941C220.164 55.1748 220.192 55.0388 220.197 54.8859C220.205 54.7304 220.209 54.6047 220.209 54.5088L220.496 54.5943C220.214 54.6384 219.971 54.6773 219.769 54.711C219.567 54.7446 219.394 54.777 219.248 54.8081C219.103 54.8366 218.975 54.869 218.864 54.9053C218.755 54.9442 218.663 54.9895 218.588 55.0414C218.512 55.0932 218.454 55.1528 218.413 55.2202C218.374 55.2876 218.354 55.3666 218.354 55.4573C218.354 55.561 218.38 55.653 218.432 55.7333C218.484 55.8111 218.559 55.8733 218.658 55.9199C218.759 55.9666 218.883 55.9899 219.031 55.9899ZM224.167 56.7362C223.758 56.7362 223.414 56.6391 223.137 56.4447C222.86 56.2503 222.651 55.986 222.511 55.6517C222.371 55.3148 222.301 54.9377 222.301 54.5205C222.301 54.0981 222.371 53.7197 222.511 53.3854C222.651 53.0511 222.856 52.788 223.125 52.5962C223.397 52.4019 223.733 52.3047 224.132 52.3047C224.529 52.3047 224.872 52.4019 225.162 52.5962C225.455 52.788 225.682 53.0511 225.843 53.3854C226.003 53.7171 226.084 54.0955 226.084 54.5205C226.084 54.9403 226.005 55.3174 225.847 55.6517C225.688 55.986 225.466 56.2503 225.178 56.4447C224.89 56.6391 224.553 56.7362 224.167 56.7362ZM222.142 56.6196V51.0219H223.087V53.673H222.97V56.6196H222.142ZM224.023 55.8966C224.267 55.8966 224.468 55.8357 224.626 55.7139C224.784 55.5921 224.901 55.4275 224.976 55.2202C225.053 55.0103 225.092 54.777 225.092 54.5205C225.092 54.2665 225.053 54.0359 224.976 53.8285C224.898 53.6186 224.777 53.4528 224.614 53.331C224.451 53.2066 224.244 53.1444 223.992 53.1444C223.754 53.1444 223.559 53.2027 223.409 53.3193C223.259 53.4333 223.147 53.594 223.075 53.8013C223.005 54.0061 222.97 54.2458 222.97 54.5205C222.97 54.7926 223.005 55.0323 223.075 55.2396C223.147 55.447 223.26 55.6089 223.413 55.7255C223.569 55.8396 223.772 55.8966 224.023 55.8966ZM227.018 51.7838V50.9247H227.955V51.7838H227.018ZM227.018 56.6196V52.4213H227.955V56.6196H227.018ZM229.197 56.6196V50.9053H230.134V56.6196H229.197ZM231.376 51.7838V50.9247H232.313V51.7838H231.376ZM231.376 56.6196V52.4213H232.313V56.6196H231.376ZM235.938 56.6196C235.661 56.6715 235.389 56.6935 235.122 56.6857C234.858 56.6805 234.62 56.6326 234.411 56.5419C234.201 56.4486 234.041 56.3022 233.932 56.1026C233.836 55.9212 233.786 55.7359 233.781 55.5467C233.776 55.3575 233.773 55.1437 233.773 54.9053V51.2551H234.706V54.8509C234.706 55.0193 234.707 55.1671 234.71 55.2941C234.715 55.421 234.742 55.5247 234.791 55.605C234.885 55.7605 235.034 55.8473 235.239 55.8655C235.443 55.8836 235.676 55.8733 235.938 55.8344V56.6196ZM233.011 53.156V52.4213H235.938V53.156H233.011ZM237.279 58.4855L238.088 56.2659L238.103 56.919L236.272 52.4213H237.248L238.546 55.7489H238.298L239.561 52.4213H240.498L238.158 58.4855H237.279Z" fill="white" fill-opacity="0.760323"/>
</svg>
